<?xml version="1.0" encoding="utf-8"?>
<!-- Generator: Adobe Illustrator 16.0.0, SVG Export Plug-In . SVG Version: 6.00 Build 0)  -->
<!DOCTYPE svg PUBLIC "-//W3C//DTD SVG 1.1//EN" "http://www.w3.org/Graphics/SVG/1.1/DTD/svg11.dtd">
<svg version="1.1" id="Ebene_1" xmlns="http://www.w3.org/2000/svg" xmlns:xlink="http://www.w3.org/1999/xlink" x="0px" y="0px"
	 width="200px" height="200px" viewBox="0 0 200 200" enable-background="new 0 0 200 200" xml:space="preserve">
<g>
	<g transform="translate(0.000000,511.000000) scale(0.100000,-0.100000)">
		<path d="M1715.859,4958.383c-19.131-8.838-22.734-20.991-22.734-78.086V4830.2l12.266-12.52
			c14.072-14.365,28.887-16.572,45.479-6.26c15.518,9.209,18.047,19.146,18.047,74.771c0,50.835,0,51.572-9.736,62.617
			C1747.266,4962.06,1731.748,4965.38,1715.859,4958.383z"/>
		<path d="M1875.4,4886.557c-17.324-11.045-69.658-68.14-72.188-78.818c-6.133-25.039,11.182-46.782,37.188-46.782
			c15.508,0,17.324,1.47,50.537,34.243c18.76,18.413,36.103,39.053,38.994,45.308c6.855,16.572,0.723,36.479-14.082,45.684
			C1901.406,4895.395,1889.111,4895.395,1875.4,4886.557z"/>
		<path d="M1236.514,4877.333c-70.029-16.572-110.088-47.52-146.172-113.818c-7.939-14.36-13.359-20.625-16.963-19.517
			c-17.686,6.997-97.827,17.671-145.815,19.517l-55.952,2.207l-11.187-10.679c-9.38-8.833-15.874-25.039-40.435-101.299
			l-29.604-90.605l-38.267-8.101c-132.466-28.354-241.475-90.234-336.772-190.43c-99.976-105.718-158.086-226.899-179.014-373.486
			c-7.222-51.943-5.415-157.666,3.608-207.383c38.623-210.693,170.366-387.861,357.7-481.416
			c307.886-153.974,677.134-39.424,852.563,264.463c55.947,96.885,83.008,195.586,86.641,313.818
			c3.242,114.932-14.434,204.053-60.273,303.887c-32.842,71.45-67.861,122.656-125.615,183.062
			c-31.055,32.036-37.188,40.527-35.02,46.787c1.445,4.419,16.24,41.26,32.852,82.129c30.674,74.771,33.574,86.924,25.977,104.248
			c-7.93,17.676-105.039,74.404-180.479,105.352l-38.613,15.835l7.93,14.36c10.83,20.249,31.777,41.26,49.824,50.469
			c19.111,10.308,57.021,18.408,85.166,18.408c63.525,0,181.201-40.889,363.115-127.075c64.248-30.215,68.223-31.685,80.127-27.617
			c25.625,8.472,35.742,39.419,19.482,60.405c-18.037,23.569-252.295,125.605-356.973,155.82
			c-39.717,11.411-51.26,13.257-95.664,14.36C1274.053,4881.752,1251.328,4880.649,1236.514,4877.333z M907.334,4403.662
			c13.711-11.045,18.765-29.458,11.909-45.313c-7.217-18.042-19.844-23.198-59.917-25.776
			c-193.828-12.515-353.013-155.078-390.176-349.927c-3.613-19.883-6.86-46.787-6.86-60.049c0-29.463-6.855-47.139-21.289-54.512
			c-14.434-7.734-24.897-7.354-38.628,1.113c-18.042,11.045-20.928,26.162-15.874,76.24
			c12.988,130.752,64.966,240.156,155.215,326.709c89.507,85.815,209.36,137.017,323.403,138.491
			C892.9,4411.025,899.399,4409.921,907.334,4403.662z"/>
		<path d="M1871.435,4724.482c-20.566-8.838-29.971-40.522-17.324-58.936c10.107-14.36,26.357-18.779,71.826-18.779
			c44.766,0,57.744,3.682,68.213,19.146c9.395,13.628,7.227,34.268-4.688,47.891l-10.469,12.148l-50.176,0.737
			C1901.406,4727.06,1875.4,4725.952,1871.435,4724.482z"/>
		<path d="M1567.871,4575.683c-35.381-36.108-37.178-38.687-37.178-53.413c0-11.782,2.52-18.047,10.469-27.271
			c9.023-10.308,12.979-12.148,27.412-12.148c16.25,0,16.973,0.732,54.863,39.419l38.271,39.785l-2.168,17.31
			c-2.52,23.564-14.424,34.258-37.9,34.258C1605.42,4613.608,1604.346,4612.871,1567.871,4575.683z"/>
		<path d="M1814.756,4604.77c-10.82-10.313-15.146-23.936-11.543-37.949c2.529-11.045,59.561-72.559,74.717-80.659
			c31.035-16.572,65.332,15.464,51.982,47.886c-2.891,6.265-20.215,26.885-38.994,45.684
			c-33.213,32.422-35.029,33.892-50.527,33.892C1828.105,4613.608,1821.621,4611.401,1814.756,4604.77z"/>
		<path d="M1705.391,4556.884l-12.266-12.524v-50.835c0-43.833,1.074-52.676,6.855-62.612c13.711-23.198,44.746-24.307,61.719-2.212
			c6.504,8.101,7.217,15.098,7.217,60.039c0,55.62-2.881,67.036-18.408,75.508
			C1733.193,4573.085,1719.101,4570.874,1705.391,4556.884z"/>
	</g>
</g>
</svg>
