<?xml version="1.0" encoding="utf-8"?>
<!-- Generator: Adobe Illustrator 16.0.0, SVG Export Plug-In . SVG Version: 6.00 Build 0)  -->
<!DOCTYPE svg PUBLIC "-//W3C//DTD SVG 1.1//EN" "http://www.w3.org/Graphics/SVG/1.1/DTD/svg11.dtd">
<svg version="1.1" id="Ebene_1" xmlns="http://www.w3.org/2000/svg" xmlns:xlink="http://www.w3.org/1999/xlink" x="0px" y="0px"
	 width="200px" height="200px" viewBox="0 0 200 200" enable-background="new 0 0 200 200" xml:space="preserve">
<g>
	<g transform="matrix(1 0 0 -1 0 1920)">
		<path d="M100,1722c-8.88,0-17.54,1.18-25.98,3.52s-16.26,5.621-23.42,9.84c-7.18,4.221-13.78,9.361-19.82,15.4
			c-6.04,6.04-11.18,12.641-15.4,19.78c-4.22,7.14-7.5,14.96-9.84,23.42S2,1811.12,2,1820s1.18,17.54,3.52,25.98
			s5.62,16.26,9.84,23.42c4.22,7.16,9.36,13.78,15.4,19.82c6.04,6.04,12.64,11.18,19.82,15.4c7.18,4.22,14.98,7.5,23.42,9.84
			s17.12,3.54,26,3.54s17.54-1.18,25.98-3.52c8.439-2.34,16.26-5.62,23.42-9.84c7.16-4.22,13.779-9.36,19.82-15.4
			c6.039-6.04,11.18-12.66,15.399-19.82c4.22-7.18,7.5-14.98,9.86-23.42c2.34-8.44,3.52-17.1,3.52-25.98
			c0-7.62-0.859-15.1-2.561-22.44c-1.719-7.34-4.18-14.221-7.399-20.66c-3.22-6.42-7.08-12.48-11.54-18.16s-9.54-10.76-15.221-15.22
			c-5.68-4.46-11.739-8.319-18.159-11.54s-13.32-5.7-20.66-7.4C115.1,1722.859,107.62,1722,100,1722z M100,1743.6
			c6.9,0,13.641,0.92,20.24,2.78c6.6,1.841,12.699,4.42,18.3,7.7c5.601,3.279,10.739,7.26,15.44,11.96
			c4.699,4.7,8.68,9.84,11.959,15.44c3.281,5.6,5.84,11.699,7.701,18.299c1.84,6.601,2.779,13.341,2.779,20.241
			c0,9.82-1.8,19.18-5.38,28.06s-8.601,16.8-15.06,23.76l-13.98-13.9c4.641-5.14,8.24-10.96,10.84-17.46
			c2.6-6.52,3.9-13.32,3.9-20.44c0-7.681-1.5-15-4.52-22.021c-3-7-7.041-13.039-12.08-18.08c-5.041-5.039-11.08-9.06-18.08-12.039
			c-7-2.98-14.34-4.461-22.021-4.461c-7.68,0-15,1.48-21.98,4.461c-6.98,2.979-13,7-18.08,12.039c-5.08,5.041-9.1,11.08-12.08,18.08
			s-4.46,14.34-4.46,22.021c0,5.08,0.64,10.02,1.94,14.86c1.3,4.82,3.16,9.3,5.58,13.4c2.42,4.12,5.32,7.9,8.7,11.38
			c-1,1.88-1.48,3.84-1.48,5.88c0,3.58,1.26,6.64,3.76,9.14c2.52,2.52,5.56,3.76,9.14,3.76c4.2,0,7.58-1.68,10.18-5.04
			c6.18,2.16,12.44,3.22,18.78,3.22c3.979,0,7.94-0.42,11.92-1.24l-1.399-5.62c-3.541,0.78-7.041,1.16-10.521,1.16
			c-5.52,0-10.96-0.92-16.3-2.74c0.16-0.88,0.24-1.76,0.24-2.64c0-3.58-1.26-6.64-3.76-9.14c-2.52-2.52-5.56-3.76-9.14-3.76
			c-2.82,0-5.38,0.86-7.7,2.56c-4.46-4.7-7.96-10.06-10.48-16.1s-3.76-12.4-3.76-19.08c0-6.899,1.36-13.5,4.06-19.78
			c2.7-6.3,6.34-11.699,10.88-16.22c4.56-4.521,9.96-8.14,16.22-10.84c6.26-2.7,12.84-4.06,19.74-4.06
			c6.899,0,13.5,1.359,19.78,4.06c6.3,2.7,11.699,6.319,16.22,10.84s8.14,9.94,10.84,16.22c2.7,6.301,4.06,12.881,4.06,19.78
			c0,4.24-0.52,8.42-1.58,12.5c-1.039,4.08-2.539,7.9-4.459,11.46c-1.94,3.56-4.24,6.82-6.961,9.8l-13.66-13.58
			c5.08-6.02,7.621-12.74,7.621-20.2c0-5.74-1.44-11.04-4.301-15.94c-2.859-4.88-6.74-8.74-11.619-11.58
			c-4.881-2.84-10.201-4.26-15.94-4.26c-3.76,0-7.54,0.72-11.34,2.16c-2.6-2.641-5.72-3.98-9.36-3.98c-3.58,0-6.64,1.26-9.14,3.76
			c-2.52,2.521-3.76,5.561-3.76,9.141c0,3.64,1.32,6.76,3.98,9.359c-1.44,3.76-2.16,7.541-2.16,11.34c0,4.3,0.84,8.42,2.52,12.34
			c1.68,3.92,3.94,7.3,6.78,10.14s6.22,5.1,10.14,6.78c3.92,1.68,8.02,2.52,12.34,2.52c1.76,0,3.7-0.2,5.8-0.58l-1.32-5.22
			c-1.72,0.28-3.199,0.42-4.459,0.42c-4.8,0-9.22-1.18-13.28-3.52c-4.06-2.34-7.26-5.54-9.6-9.6c-2.34-4.06-3.52-8.48-3.52-13.28
			c0-2.7,0.5-5.54,1.48-8.52c1.48,0.5,2.9,0.74,4.22,0.74c3.58,0,6.64-1.26,9.14-3.76c2.52-2.521,3.76-5.561,3.76-9.141
			c0-1.38-0.24-2.779-0.74-4.22c2.98-1,5.82-1.479,8.52-1.479c3.58,0,7,0.68,10.26,2.06c3.261,1.38,6.06,3.26,8.44,5.62
			c2.38,2.38,4.24,5.18,5.619,8.439c1.381,3.26,2.061,6.68,2.061,10.26c0,6.06-1.96,11.54-5.88,16.38l-18.38-18.3
			c-0.6-0.6-1.301-0.92-2.06-0.92c-0.78,0-1.44,0.301-2.02,0.92c-0.58,0.601-0.86,1.26-0.86,1.98c0,0.78,0.3,1.46,0.92,2.06
			l53.719,53.8c-2.699,2.54-5.58,4.86-8.639,6.96c-3.061,2.1-6.301,3.98-9.681,5.66c-3.399,1.68-6.899,3.1-10.521,4.26
			c-3.619,1.16-7.359,2.04-11.22,2.64s-7.78,0.92-11.76,0.92c-5.96,0-11.8-0.68-17.5-2.02c-5.7-1.34-11.06-3.28-16.06-5.8
			s-9.72-5.5-14.16-8.98c-4.44-3.48-8.4-7.44-11.88-11.88s-6.46-9.16-8.98-14.16s-4.44-10.36-5.8-16.1
			c-1.36-5.74-2.02-11.56-2.02-17.46c0-4.2,0.34-8.32,1-12.38c0.66-4.06,1.62-7.979,2.9-11.76c1.26-3.779,2.82-7.439,4.68-10.96
			c1.84-3.54,3.92-6.86,6.2-10.021c2.3-3.139,4.84-6.119,7.66-8.899s5.78-5.319,8.9-7.62c3.12-2.3,6.46-4.359,10.02-6.199
			s7.22-3.4,10.96-4.681c3.76-1.26,7.66-2.239,11.72-2.899C91.68,1743.939,95.8,1743.6,100,1743.6z"/>
	</g>
</g>
</svg>
